<svg xmlns="http://www.w3.org/2000/svg" width="20" height="20"  viewBox="0 0 14 15">
    <g fill="#3CCF8E" fill-rule="evenodd">
        <path d="M6.505.101A6.512 6.512 0 0 0 0 6.606a6.512 6.512 0 0 0 6.505 6.505 6.512 6.512 0 0 0 6.504-6.505A6.512 6.512 0 0 0 6.505.101zm0 11.96a5.463 5.463 0 0 1-5.457-5.455A5.463 5.463 0 0 1 6.505 1.15a5.463 5.463 0 0 1 5.455 5.457 5.462 5.462 0 0 1-5.455 5.455z"/>
        <path d="M8.578 4.532L5.542 7.569 4.43 6.457a.524.524 0 0 0-.74.74L5.172 8.68a.524.524 0 0 0 .74 0L9.32 5.273a.523.523 0 1 0-.741-.741z"/>
    </g>
</svg>
